HIERARCHY
ROOT Hips
{
	OFFSET 0.000000 71.427986 0.000000
	CHANNELS 6 Xposition Yposition Zposition Xrotation Yrotation Zrotation
	JOINT Pelvis
	{
		OFFSET 0.000000 0.000000 0.000000
		CHANNELS 3 Xrotation Yrotation Zrotation
		JOINT LeftUpLeg
		{
			OFFSET 6.797100 -2.508499 -1.318700
			CHANNELS 3 Xrotation Yrotation Zrotation
			JOINT LeftLeg
			{
				OFFSET 0.069008 -29.241863 0.690200
				CHANNELS 3 Xrotation Yrotation Zrotation
				JOINT LeftFoot
				{
					OFFSET -0.069008 -29.568123 -0.266800
					CHANNELS 3 Xrotation Yrotation Zrotation
					JOINT LeftToeBase
					{
						OFFSET 3.145500 -8.631000 16.059900
						CHANNELS 3 Xrotation Yrotation Zrotation
						End Site
						{
							OFFSET 0.000000 18.501587 0.000000
						}
					}
				}
			}
			JOINT Left_ShortSleeve
			{
				OFFSET 0.265923 -10.480953 1.153800
				CHANNELS 3 Xrotation Yrotation Zrotation
				End Site
				{
					OFFSET 1.725763 19.823879 0.000000
				}
			}
		}
		JOINT RightUpLeg
		{
			OFFSET -6.797100 -2.508499 -1.318700
			CHANNELS 3 Xrotation Yrotation Zrotation
			JOINT RightLeg
			{
				OFFSET -0.082453 -29.241932 0.688000
				CHANNELS 3 Xrotation Yrotation Zrotation
				JOINT RightFoot
				{
					OFFSET 0.082453 -29.568058 -0.264600
					CHANNELS 3 Xrotation Yrotation Zrotation
					JOINT RightToeBase
					{
						OFFSET -3.115300 -8.682800 16.113400
						CHANNELS 3 Xrotation Yrotation Zrotation
						End Site
						{
							OFFSET 0.000000 18.567114 0.000000
						}
					}
				}
			}
			JOINT Right_ShortSleeve
			{
				OFFSET -0.265923 -10.480953 1.153800
				CHANNELS 3 Xrotation Yrotation Zrotation
				End Site
				{
					OFFSET -1.725766 19.823910 0.000000
				}
			}
		}
	}
	JOINT Spine
	{
		OFFSET 0.000000 13.368103 0.470500
		CHANNELS 3 Xrotation Yrotation Zrotation
		JOINT Spine1
		{
			OFFSET 0.147000 13.837402 0.538800
			CHANNELS 3 Xrotation Yrotation Zrotation
			JOINT Spine2
			{
				OFFSET 0.168000 16.242897 -1.435500
				CHANNELS 3 Xrotation Yrotation Zrotation
				JOINT Neck
				{
					OFFSET 0.217200 18.631500 -1.679100
					CHANNELS 3 Xrotation Yrotation Zrotation
					JOINT Head
					{
						OFFSET 0.000000 6.599396 1.385900
						CHANNELS 3 Xrotation Yrotation Zrotation
						JOINT Hat
						{
							OFFSET -0.532200 27.220596 -10.096100
							CHANNELS 3 Xrotation Yrotation Zrotation
							End Site
							{
								OFFSET 0.000000 22.029861 0.000000
							}
						}
						JOINT HairD
						{
							OFFSET -10.777400 17.437393 -1.325900
							CHANNELS 3 Xrotation Yrotation Zrotation
							JOINT HairD1
							{
								OFFSET -3.290299 -11.051193 1.062200
								CHANNELS 3 Xrotation Yrotation Zrotation
								End Site
								{
									OFFSET 0.000000 11.579437 0.000000
								}
							}
						}
						JOINT HairB
						{
							OFFSET -10.777400 17.437393 1.467900
							CHANNELS 3 Xrotation Yrotation Zrotation
							JOINT HairB1
							{
								OFFSET -1.561200 -12.956299 3.590200
								CHANNELS 3 Xrotation Yrotation Zrotation
								End Site
								{
									OFFSET 0.000000 13.534866 0.000000
								}
							}
						}
						JOINT HairA
						{
							OFFSET 9.713100 17.437393 1.467900
							CHANNELS 3 Xrotation Yrotation Zrotation
							JOINT HairA1
							{
								OFFSET 1.561200 -12.956299 3.590200
								CHANNELS 3 Xrotation Yrotation Zrotation
								End Site
								{
									OFFSET 0.000000 13.534866 0.000000
								}
							}
						}
						JOINT HairC
						{
							OFFSET 9.713100 17.437393 -1.325900
							CHANNELS 3 Xrotation Yrotation Zrotation
							JOINT HairC1
							{
								OFFSET 3.290300 -11.051193 1.062200
								CHANNELS 3 Xrotation Yrotation Zrotation
								End Site
								{
									OFFSET 0.000000 11.579437 0.000000
								}
							}
						}
					}
				}
				JOINT LeftShoulder
				{
					OFFSET 5.101800 15.108002 -2.763700
					CHANNELS 3 Xrotation Yrotation Zrotation
					JOINT LeftArm
					{
						OFFSET 9.825497 2.506317 -1.597400
						CHANNELS 3 Xrotation Yrotation Zrotation
						JOINT LeftForeArm
						{
							OFFSET 21.966244 0.000000 0.000000
							CHANNELS 3 Xrotation Yrotation Zrotation
							JOINT LeftHand
							{
								OFFSET 33.879036 0.000000 0.000000
								CHANNELS 3 Xrotation Yrotation Zrotation
								JOINT LeftHandThumb1
								{
									OFFSET 6.715286 -2.359680 3.363841
									CHANNELS 3 Xrotation Yrotation Zrotation
									JOINT LeftHandThumb2
									{
										OFFSET 2.507072 -1.447464 1.447461
										CHANNELS 3 Xrotation Yrotation Zrotation
										JOINT LeftHandThumb3
										{
											OFFSET 2.898338 -1.673355 1.673357
											CHANNELS 3 Xrotation Yrotation Zrotation
											End Site
											{
												OFFSET -0.295959 3.727692 -0.131651
											}
										}
									}
								}
								JOINT LeftHandIndex1
								{
									OFFSET 14.190811 -0.254547 3.840278
									CHANNELS 3 Xrotation Yrotation Zrotation
									JOINT LeftHandIndex2
									{
										OFFSET 3.551727 0.000000 -0.000000
										CHANNELS 3 Xrotation Yrotation Zrotation
										JOINT LeftHandIndex3
										{
											OFFSET 2.894196 0.000000 0.000000
											CHANNELS 3 Xrotation Yrotation Zrotation
											End Site
											{
												OFFSET -1.000603 2.690872 0.366626
											}
										}
									}
								}
								JOINT LeftHandMiddle1
								{
									OFFSET 13.776489 0.000000 0.000000
									CHANNELS 3 Xrotation Yrotation Zrotation
									JOINT LeftHandMiddle2
									{
										OFFSET 3.438232 0.000000 0.000000
										CHANNELS 3 Xrotation Yrotation Zrotation
										JOINT LeftHandMiddle3
										{
											OFFSET 3.691551 0.000000 0.000000
											CHANNELS 3 Xrotation Yrotation Zrotation
											End Site
											{
												OFFSET -1.082298 3.499527 0.457670
											}
										}
									}
								}
								JOINT LeftHandRing1
								{
									OFFSET 13.966164 -0.268127 -3.067488
									CHANNELS 3 Xrotation Yrotation Zrotation
									JOINT LeftHandRing2
									{
										OFFSET 3.162567 0.000000 0.000000
										CHANNELS 3 Xrotation Yrotation Zrotation
										JOINT LeftHandRing3
										{
											OFFSET 3.324348 0.000000 0.000000
											CHANNELS 3 Xrotation Yrotation Zrotation
											End Site
											{
												OFFSET -0.861900 3.184998 0.405154
											}
										}
									}
								}
								JOINT LeftHandPinky1
								{
									OFFSET 13.131393 -0.168503 -5.746925
									CHANNELS 3 Xrotation Yrotation Zrotation
									JOINT LeftHandPinky2
									{
										OFFSET 2.849182 0.000000 0.000000
										CHANNELS 3 Xrotation Yrotation Zrotation
										JOINT LeftHandPinky3
										{
											OFFSET 2.805038 0.000000 0.000000
											CHANNELS 3 Xrotation Yrotation Zrotation
											End Site
											{
												OFFSET -0.882500 2.642609 0.325652
											}
										}
									}
								}
							}
							JOINT Left_Sleeve
							{
								OFFSET 6.592125 -0.646545 0.805568
								CHANNELS 3 Xrotation Yrotation Zrotation
								End Site
								{
									OFFSET -0.000179 20.275787 -0.000000
								}
							}
						}
					}
				}
				JOINT RightShoulder
				{
					OFFSET -5.731700 15.108002 -2.763700
					CHANNELS 3 Xrotation Yrotation Zrotation
					JOINT RightArm
					{
						OFFSET -9.825497 2.506317 -1.597400
						CHANNELS 3 Xrotation Yrotation Zrotation
						JOINT RightForeArm
						{
							OFFSET -21.966242 0.000000 0.000000
							CHANNELS 3 Xrotation Yrotation Zrotation
							JOINT RightHand
							{
								OFFSET -33.879032 0.000000 0.000000
								CHANNELS 3 Xrotation Yrotation Zrotation
								JOINT RightHandThumb1
								{
									OFFSET -6.715286 -2.359680 3.363841
									CHANNELS 3 Xrotation Yrotation Zrotation
									JOINT RightHandThumb2
									{
										OFFSET -2.507072 -1.447464 1.447461
										CHANNELS 3 Xrotation Yrotation Zrotation
										JOINT RightHandThumb3
										{
											OFFSET -2.898338 -1.673355 1.673357
											CHANNELS 3 Xrotation Yrotation Zrotation
											End Site
											{
												OFFSET 0.295959 3.727692 -0.131651
											}
										}
									}
								}
								JOINT RightHandIndex1
								{
									OFFSET -14.190811 -0.254547 3.840278
									CHANNELS 3 Xrotation Yrotation Zrotation
									JOINT RightHandIndex2
									{
										OFFSET -3.551727 0.000000 -0.000000
										CHANNELS 3 Xrotation Yrotation Zrotation
										JOINT RightHandIndex3
										{
											OFFSET -2.894196 0.000000 0.000000
											CHANNELS 3 Xrotation Yrotation Zrotation
											End Site
											{
												OFFSET 1.000603 2.690872 0.366626
											}
										}
									}
								}
								JOINT RightHandMiddle1
								{
									OFFSET -13.776489 0.000000 0.000000
									CHANNELS 3 Xrotation Yrotation Zrotation
									JOINT RightHandMiddle2
									{
										OFFSET -3.438232 0.000000 0.000000
										CHANNELS 3 Xrotation Yrotation Zrotation
										JOINT RightHandMiddle3
										{
											OFFSET -3.691551 0.000000 0.000000
											CHANNELS 3 Xrotation Yrotation Zrotation
											End Site
											{
												OFFSET 1.082298 3.499527 0.457670
											}
										}
									}
								}
								JOINT RightHandRing1
								{
									OFFSET -13.966164 -0.268127 -3.067488
									CHANNELS 3 Xrotation Yrotation Zrotation
									JOINT RightHandRing2
									{
										OFFSET -3.162567 0.000000 0.000000
										CHANNELS 3 Xrotation Yrotation Zrotation
										JOINT RightHandRing3
										{
											OFFSET -3.324348 0.000000 0.000000
											CHANNELS 3 Xrotation Yrotation Zrotation
											End Site
											{
												OFFSET 0.861900 3.184998 0.405154
											}
										}
									}
								}
								JOINT RightHandPinky1
								{
									OFFSET -13.131393 -0.168503 -5.746925
									CHANNELS 3 Xrotation Yrotation Zrotation
									JOINT RightHandPinky2
									{
										OFFSET -2.849182 0.000000 0.000000
										CHANNELS 3 Xrotation Yrotation Zrotation
										JOINT RightHandPinky3
										{
											OFFSET -2.805038 0.000000 0.000000
											CHANNELS 3 Xrotation Yrotation Zrotation
											End Site
											{
												OFFSET 0.882500 2.642609 0.325652
											}
										}
									}
								}
							}
							JOINT Right_Sleeve
							{
								OFFSET -6.592125 -0.646545 0.805568
								CHANNELS 3 Xrotation Yrotation Zrotation
								End Site
								{
									OFFSET 0.000179 20.275787 -0.000000
								}
							}
						}
					}
				}
				JOINT Bind_Right_JacketString
				{
					OFFSET -3.534800 11.969597 7.200700
					CHANNELS 3 Xrotation Yrotation Zrotation
					JOINT Bind_Right_JacketString1
					{
						OFFSET -0.319900 -6.102600 2.794100
						CHANNELS 3 Xrotation Yrotation Zrotation
						End Site
						{
							OFFSET 0.000000 6.719452 0.000000
						}
					}
				}
				JOINT Bind_Left_JacketString
				{
					OFFSET 2.904800 11.969597 7.200700
					CHANNELS 3 Xrotation Yrotation Zrotation
					JOINT Bind_Left_JacketString1
					{
						OFFSET 0.364800 -5.904503 3.186800
						CHANNELS 3 Xrotation Yrotation Zrotation
						End Site
						{
							OFFSET 0.000000 6.719513 0.000000
						}
					}
				}
				JOINT HairE
				{
					OFFSET 5.915200 17.612701 -11.592200
					CHANNELS 3 Xrotation Yrotation Zrotation
					JOINT HairE1
					{
						OFFSET 0.289200 -7.171898 -1.284500
						CHANNELS 3 Xrotation Yrotation Zrotation
						End Site
						{
							OFFSET 0.000000 7.291756 0.000000
						}
					}
				}
				JOINT HairF
				{
					OFFSET -0.864800 17.612701 -11.592200
					CHANNELS 3 Xrotation Yrotation Zrotation
					JOINT HairF1
					{
						OFFSET 0.000000 -14.087097 -2.127501
						CHANNELS 3 Xrotation Yrotation Zrotation
						End Site
						{
							OFFSET 0.000000 14.246841 0.000000
						}
					}
				}
				JOINT HairG
				{
					OFFSET -8.087700 17.612701 -11.592200
					CHANNELS 3 Xrotation Yrotation Zrotation
					JOINT HairG1
					{
						OFFSET -0.293600 -6.081398 -0.910100
						CHANNELS 3 Xrotation Yrotation Zrotation
						End Site
						{
							OFFSET 0.000000 6.156120 0.000000
						}
					}
				}
			}
		}
	}
	JOINT Pouch
	{
		OFFSET 0.000000 4.394501 10.847300
		CHANNELS 3 Xrotation Yrotation Zrotation
		End Site
		{
			OFFSET 0.000000 21.880577 0.000000
		}
	}
	JOINT Bag
	{
		OFFSET -13.229000 4.813004 -0.593300
		CHANNELS 3 Xrotation Yrotation Zrotation
		End Site
		{
			OFFSET 0.000000 21.880577 0.000000
		}
	}
	JOINT OccupyGuyFacialAnim_Joint
	{
		OFFSET 1.000000 -70.206398 -1.655000
		CHANNELS 3 Xrotation Yrotation Zrotation
		End Site
		{
			OFFSET 0.000000 21.880577 0.000000
		}
	}
}
MOTION
Frames: 4
Frame Time: 0.033333
-0.274232 69.848953 1.509454 -4.122016 -8.693729 0.206302 -0.000000 0.000000 0.000000 -2.676518 1.508218 4.561238 21.813883 -0.367015 -0.802454 -14.122099 11.877149 -4.404380 -0.000000 -0.000000 -0.000000 -0.000000 0.000000 -0.000001 -5.046474 0.289278 -4.602840 26.228247 0.299661 0.988996 -17.123455 -8.379694 3.661460 -0.000000 -0.000000 0.000000 -0.000001 -0.000000 -0.000001 3.920034 0.371821 -0.016546 7.839847 0.739310 0.000733 7.839850 0.739311 0.000732 3.008839 -0.606294 2.184750 -9.095421 1.411363 -3.078235 -0.000001 -0.000000 -0.000000 -0.000001 -0.000000 -0.000000 -0.000001 -0.000000 -0.000000 -0.000001 -0.000000 -0.000000 -0.000001 -0.000000 -0.000000 -0.000001 -0.000000 -0.000000 -0.000001 -0.000000 -0.000000 -0.000001 -0.000000 -0.000000 -0.000001 -0.000000 -0.000000 -0.000002 -0.000004 0.000272 5.969075 -20.338681 -70.761327 -2.476728 -78.092852 -1.687752 35.984005 -3.080410 25.180414 -3.906047 -10.571765 -4.374759 3.362353 21.294250 -5.805920 -0.000002 0.000001 0.000001 -6.060119 2.089265 -7.935220 0.000957 0.388812 -20.165625 0.000001 0.000000 -0.000002 -0.366672 2.216697 -14.010746 -0.361960 -1.778030 -22.312703 0.000001 0.000002 0.000004 0.589601 4.760084 -29.201480 -0.495294 -2.160499 -26.280381 0.000001 -0.000003 0.000000 -0.243295 1.425141 -42.036553 -0.050872 -1.051561 -8.727119 0.000001 -0.000006 0.000004 -0.000001 0.000000 0.000001 -0.000003 -0.000011 0.000286 11.806346 5.188324 74.110599 38.369339 90.434751 -39.062190 30.665804 5.428225 -21.958583 5.298252 5.629966 13.559344 3.502698 -12.177756 1.610976 0.000001 -0.000001 -0.000001 -6.047927 -7.019808 17.997093 0.038861 -0.396181 8.961969 -0.000004 -0.000000 0.000000 -1.870302 -1.739488 22.875292 -0.286907 1.370482 22.743666 -0.000000 -0.000002 0.000001 2.148069 -4.544643 19.698814 -2.579751 4.917306 52.752276 0.000002 -0.000000 -0.000002 3.022040 1.977983 33.370368 -2.084456 6.099820 37.911467 -0.000002 -0.000002 -0.000001 -0.000000 -0.000002 -0.000000 -0.000001 -0.000001 0.000000 0.000001 -0.000000 0.000000 -0.000001 -0.000001 0.000000 -0.000001 -0.000001 0.000000 -0.000001 -0.000001 0.000000 0.000001 -0.000000 0.000000 -0.000001 -0.000001 0.000000 -0.000001 -0.000001 0.000000 -0.000001 -0.000001 0.000000 0.000001 -0.000000 0.000000 -0.000000 0.000000 0.000000 -0.000000 0.000000 0.000000 -0.000000 0.000000 0.000000 
-0.250652 69.830544 1.574958 -4.239640 -8.445531 0.264173 0.000000 -0.000000 -0.000000 -2.673552 2.464156 4.678989 21.944300 -0.356821 -0.808400 -14.209089 10.642019 -4.438448 0.000000 -0.000000 0.000000 0.000000 0.000000 -0.000000 -4.730105 2.684516 -4.138065 26.382728 0.298206 0.995162 -17.349087 -11.073526 3.510855 0.000000 0.000000 -0.000000 -0.000000 -0.000000 -0.000000 3.824177 0.458424 0.015282 7.647856 0.914190 0.061731 7.647853 0.914190 0.061731 0.981809 -1.218545 1.356556 -5.242497 7.456503 -4.509563 0.000000 0.000000 0.000000 0.000000 0.000000 0.000000 0.000000 0.000000 0.000000 0.000000 0.000000 0.000000 -0.000001 -0.000000 -0.000000 0.000000 0.000000 0.000000 -0.000001 -0.000000 -0.000000 0.000000 0.000000 0.000000 0.000000 0.000000 0.000000 -0.190552 0.730432 -0.668962 5.299876 -22.992828 -70.040728 -2.103643 -76.322733 -1.387019 35.590384 -1.624669 23.241203 -7.574345 -8.094095 -5.313144 0.235926 22.626977 -4.129077 0.000004 -0.000001 0.000001 -6.027499 2.136508 -8.504770 0.001176 0.379230 -19.578732 -0.000000 -0.000003 -0.000004 -0.360903 2.233086 -14.080556 -0.329134 -1.709072 -21.406393 0.000001 0.000001 -0.000004 0.566699 4.873281 -28.142145 -0.447431 -2.037321 -24.686640 -0.000001 0.000000 -0.000003 -1.654562 3.892277 -40.259526 -0.032086 -1.174106 -9.761676 -0.000000 -0.000001 0.000003 0.000002 -0.000002 0.000001 -0.056739 1.126234 1.513294 13.387139 3.866955 72.150519 -32.188274 89.540467 31.476613 29.495888 5.336825 -22.427500 5.298243 5.629958 13.559350 2.985065 -11.192282 1.611966 0.000004 0.000000 0.000000 -6.295216 -6.383288 17.503442 0.038860 -0.396176 8.961954 0.000001 -0.000001 -0.000002 -1.867093 -1.775344 22.180819 -0.283312 1.361969 22.595118 0.000004 -0.000002 0.000002 1.992653 -4.124094 19.629296 -2.205757 4.599459 47.926020 0.000003 0.000001 0.000000 3.361207 1.729556 31.921517 -1.832877 5.604128 34.217147 -0.000001 0.000001 0.000002 0.000000 -0.000002 0.000001 -0.000001 0.000000 -0.000000 0.000001 -0.000000 -0.000000 -0.000001 0.000000 -0.000000 -0.000001 0.000000 -0.000000 -0.000001 0.000000 -0.000000 0.000001 -0.000000 -0.000000 -0.000001 0.000000 -0.000000 -0.000001 0.000000 -0.000000 -0.000001 0.000000 -0.000000 0.000001 -0.000000 -0.000000 0.000000 -0.000000 -0.000000 0.000000 -0.000000 -0.000000 0.000000 -0.000000 -0.000000 
-0.145116 69.764549 1.543925 -4.295093 -8.465605 0.263908 0.000000 0.000000 0.000000 -3.169562 4.586937 5.032120 22.654821 -0.338048 -0.838574 -14.515180 8.445247 -4.440256 -0.000000 0.000000 0.000000 -0.000000 0.000000 -0.000000 -4.820744 5.232904 -3.676710 26.896619 0.312616 1.016387 -17.609039 -13.629818 3.432548 0.000000 0.000002 -0.000000 -0.000001 0.000000 -0.000000 3.657009 0.748115 0.134208 7.311950 1.500202 0.283948 7.311947 1.500201 0.283948 -1.281507 -3.572690 -0.808382 -1.241919 11.544695 -3.982844 -0.000000 0.000000 0.000000 -0.000000 0.000000 0.000000 -0.000000 0.000000 0.000000 -0.000000 0.000000 0.000000 0.000001 -0.000000 0.000000 -0.000000 0.000000 0.000000 0.000001 -0.000000 0.000000 -0.000000 0.000000 0.000000 -0.000000 0.000000 0.000000 -0.312910 1.660002 -1.022441 4.210216 -28.704126 -69.596465 -1.647037 -75.327814 -1.061039 39.227108 2.148125 17.189226 -11.853903 -5.302412 -6.271498 -3.531868 23.863612 -2.151458 0.000001 -0.000000 -0.000001 -5.983386 2.164625 -9.226571 0.001530 0.368818 -18.934669 -0.000003 -0.000003 0.000001 -0.345253 2.276892 -14.267687 -0.297992 -1.631424 -20.396101 -0.000000 0.000000 0.000002 0.383078 5.012231 -26.978737 -0.391754 -1.896224 -22.904954 -0.000002 0.000004 -0.000000 -3.451542 6.572736 -38.132099 -0.029659 -1.331890 -11.064796 -0.000005 -0.000002 0.000001 0.000003 0.000001 0.000000 0.110959 1.853382 2.007532 15.190530 2.702038 70.563306 -6.309007 87.798926 5.528995 26.038066 4.432621 -23.363007 5.298250 5.629953 13.559350 2.335467 -10.044343 1.597316 -0.000003 -0.000003 0.000002 -6.558546 -5.628386 16.827375 0.038859 -0.396183 8.961942 -0.000002 0.000001 0.000000 -1.857534 -1.826431 21.226491 -0.274146 1.339969 22.212033 -0.000001 -0.000002 0.000002 1.832050 -3.687479 19.565608 -1.796254 4.197300 42.455097 -0.000003 0.000000 0.000002 3.658099 1.422723 30.098465 -1.496237 5.005172 29.887231 -0.000004 0.000001 0.000001 0.000001 0.000002 0.000000 -0.000001 -0.000000 -0.000000 -0.000001 -0.000000 -0.000000 -0.000001 -0.000000 -0.000000 -0.000001 -0.000000 -0.000000 -0.000001 -0.000000 -0.000000 -0.000001 -0.000000 -0.000000 -0.000001 -0.000000 -0.000000 -0.000001 -0.000000 -0.000000 -0.000001 -0.000000 -0.000000 -0.000001 -0.000000 -0.000000 0.000000 0.000000 0.000000 0.000000 0.000000 0.000000 0.000000 0.000000 0.000000 
0.058193 69.591019 1.188226 -4.364710 -9.071415 0.100464 0.000000 0.000000 -0.000000 -4.553440 7.266684 5.691187 24.582769 -0.321678 -0.919158 -15.193071 6.165365 -4.340631 0.000000 0.000000 -0.000000 -0.000000 -0.000000 0.000000 -5.795982 7.905029 -3.112768 28.271628 0.342162 1.070415 -17.872927 -15.666815 3.485670 -0.000000 -0.000000 -0.000000 -0.000001 -0.000000 0.000000 3.558419 0.895724 0.301827 7.111960 1.805438 0.608991 7.111962 1.805442 0.608991 -4.701928 -9.770265 -4.999926 0.583700 10.220262 0.682487 0.000001 -0.000000 -0.000000 0.000001 -0.000000 -0.000000 0.000001 -0.000000 -0.000000 0.000001 -0.000000 -0.000000 0.000001 0.000000 -0.000000 0.000001 -0.000000 -0.000000 0.000001 0.000000 -0.000000 0.000001 -0.000000 -0.000000 0.000001 -0.000000 -0.000000 -0.462828 2.525080 -1.827088 5.403859 -34.972532 -67.702918 -1.324648 -77.392313 -0.909198 49.868973 4.826213 7.870912 -16.462627 -2.409620 -7.125923 -7.705039 24.875978 0.003036 -0.000001 0.000001 0.000000 -5.933760 2.174789 -10.025531 0.002079 0.358061 -18.261988 0.000000 0.000000 0.000003 -0.321993 2.340165 -14.538630 -0.269562 -1.549317 -19.333889 -0.000000 0.000002 0.000003 0.081260 5.157802 -25.758114 -0.333764 -1.744292 -21.029574 -0.000001 0.000001 -0.000002 -5.577094 9.253852 -35.718334 -0.042976 -1.506919 -12.502285 -0.000001 0.000000 -0.000002 -0.000002 -0.000002 0.000001 0.703044 1.479768 0.565457 13.555074 6.094975 69.063007 -2.006849 84.387137 1.204940 24.135209 4.225491 -22.184972 5.298236 5.629953 13.559350 1.638839 -8.863051 1.581276 -0.000001 0.000000 0.000001 -6.802134 -4.836985 16.109641 0.038859 -0.396173 8.961958 -0.000002 0.000003 0.000003 -1.844598 -1.882507 20.207424 -0.261837 1.309829 21.688221 0.000003 -0.000002 0.000001 1.670359 -3.246318 19.506916 -1.406137 3.737699 36.828404 -0.000002 -0.000003 -0.000002 3.888122 1.108372 28.174810 -1.145685 4.347277 25.406432 -0.000000 -0.000001 0.000000 0.000002 0.000002 -0.000000 0.000000 0.000000 -0.000000 0.000000 0.000000 -0.000000 0.000000 0.000000 -0.000000 0.000000 0.000000 -0.000000 0.000000 0.000000 -0.000000 0.000000 0.000000 -0.000000 0.000000 0.000000 -0.000000 0.000000 0.000000 -0.000000 0.000000 0.000000 -0.000000 0.000000 0.000000 -0.000000 0.000000 0.000000 -0.000000 0.000000 0.000000 -0.000000 0.000000 0.000000 -0.000000 
